<svg width="889" height="323" viewBox="0 0 889 323" fill="none" xmlns="http://www.w3.org/2000/svg">
<g clip-path="url(#clip0_2_2)">
<path d="M481.05 127.451V112.788H407.736V113.705V127.451V245.67V260.333H422.399H481.05V245.67H422.399V127.451H481.05Z" fill="#3F3D56"/>
<path d="M516.791 112.788V260.333H590.105V112.788H516.791ZM575.442 245.67H531.453V127.451H575.442V245.67Z" fill="#00B0FF"/>
<path d="M313.344 245.67V113.705H298.681V245.67V260.333H313.344H371.995V245.67H313.344Z" fill="#00B0FF"/>
<path d="M265.69 127.451V112.788H192.376V113.705V127.451V178.771V193.434V245.67V260.333H207.039H265.69V245.67H207.039V193.434H265.69V178.771H207.039V127.451H265.69Z" fill="#3F3D56"/>
<path d="M839.372 127.451V112.788H766.058V113.705V127.451V178.771V193.434V245.67V260.333H780.721H839.372V245.67H780.721V193.434H839.372V178.771H780.721V127.451H839.372Z" fill="#00B0FF"/>
<path d="M142.889 113.705V234.89L104.228 196.23L104.14 196.319L104.058 196.237L64.535 235.76V113.247H49.872V259.875H64.535V256.496L104.147 216.884L142.889 255.627V260.333H157.552V113.705H142.889Z" fill="#3F3D56"/>
<path d="M717.488 113.705V117.083L677.876 156.695L639.133 117.953V113.247H624.47V259.875H639.133V138.689L677.794 177.35L677.883 177.261L677.964 177.342L717.488 137.819V260.333H732.15V113.705H717.488Z" fill="#3F3D56"/>
<path d="M335.076 23.3795C340.046 23.3795 344.076 19.3501 344.076 14.3795C344.076 9.40895 340.046 5.37952 335.076 5.37952C330.105 5.37952 326.076 9.40895 326.076 14.3795C326.076 19.3501 330.105 23.3795 335.076 23.3795Z" fill="#00B0FF"/>
<path d="M113.076 123.38C118.046 123.38 122.076 119.35 122.076 114.38C122.076 109.409 118.046 105.38 113.076 105.38C108.105 105.38 104.076 109.409 104.076 114.38C104.076 119.35 108.105 123.38 113.076 123.38Z" fill="#00B0FF"/>
<path d="M291.076 323.38C296.046 323.38 300.076 319.35 300.076 314.38C300.076 309.409 296.046 305.38 291.076 305.38C286.105 305.38 282.076 309.409 282.076 314.38C282.076 319.35 286.105 323.38 291.076 323.38Z" fill="#00B0FF"/>
<path d="M517.076 50.3795C522.046 50.3795 526.076 46.3501 526.076 41.3795C526.076 36.409 522.046 32.3795 517.076 32.3795C512.105 32.3795 508.076 36.409 508.076 41.3795C508.076 46.3501 512.105 50.3795 517.076 50.3795Z" fill="#00B0FF"/>
<path d="M782.076 315.38C787.046 315.38 791.076 311.35 791.076 306.38C791.076 301.409 787.046 297.38 782.076 297.38C777.105 297.38 773.076 301.409 773.076 306.38C773.076 311.35 777.105 315.38 782.076 315.38Z" fill="#00B0FF"/>
<path d="M791.076 79.3795C796.046 79.3795 800.076 75.3501 800.076 70.3795C800.076 65.409 796.046 61.3795 791.076 61.3795C786.105 61.3795 782.076 65.409 782.076 70.3795C782.076 75.3501 786.105 79.3795 791.076 79.3795Z" fill="#00B0FF"/>
<path d="M677.076 241.38C682.046 241.38 686.076 237.35 686.076 232.38C686.076 227.409 682.046 223.38 677.076 223.38C672.105 223.38 668.076 227.409 668.076 232.38C668.076 237.35 672.105 241.38 677.076 241.38Z" fill="#00B0FF"/>
</g>
<defs>
<clipPath id="clip0_2_2">
<rect width="889" height="323" fill="white"/>
</clipPath>
</defs>
</svg>
